<svg xmlns="http://www.w3.org/2000/svg" viewBox="0 0 800 520">
  <rect width="800" height="520" fill="#ecf8f1"/>
  <rect x="44" y="42" width="712" height="436" rx="24" fill="#f6fffb" stroke="#cde8db"/>
  <rect x="90" y="96" width="620" height="140" rx="16" fill="#d2f0e2"/>
  <path d="M140 180 Q260 80 380 180" stroke="#4aa587" stroke-width="10" fill="none"/>
  <path d="M420 180 Q540 80 660 180" stroke="#4aa587" stroke-width="10" fill="none"/>
  <circle cx="220" cy="160" r="16" fill="#f7bd6f"/>
  <circle cx="310" cy="138" r="16" fill="#ef8d79"/>
  <circle cx="490" cy="138" r="16" fill="#ef8d79"/>
  <circle cx="580" cy="160" r="16" fill="#f7bd6f"/>
  <rect x="130" y="286" width="540" height="130" rx="16" fill="#fff" stroke="#d8e7df"/>
  <rect x="160" y="318" width="90" height="70" rx="10" fill="#d9f1e7"/>
  <rect x="275" y="318" width="90" height="70" rx="10" fill="#d9f1e7"/>
  <rect x="390" y="318" width="90" height="70" rx="10" fill="#d9f1e7"/>
  <rect x="505" y="318" width="90" height="70" rx="10" fill="#d9f1e7"/>
</svg>
